<?xml version="1.0"?><svg version="1.2" baseProfile="tiny-ps" viewBox="0 0 300 300" xmlns="http://www.w3.org/2000/svg" xmlns:xlink="http://www.w3.org/1999/xlink"><title>r Brand/Organization</title><g><g fill="#eff3f5" transform="matrix(.1 0 0 -.1 0 300)"><path d="M1217 2164c-4-4-7-56-7-116v-108h230v16c0 35-24 94-52 129l-30 36-36 18c-21 10-51 22-67 25l-31 7-7-7zm308-3c-28-12-54-43-64-77l-8-29 9-32 8-31 31-26 31-26h80l34 34 34 34v88l-16 22c-30 43-91 62-139 43zm-690-270c-72-33-135-120-135-186v-25h230v230h-27c-16 0-46-9-68-19zm122 12c-4-3-7-53-7-110v-104l14-5c22-8 84 12 127 42l38 26 26 51 25 51v56h-108c-60 0-112-3-115-7zm253-108v-115h230v230h-230v-115zm412 102c-18-7-48-25-68-41l-36-29-24-51c-13-28-24-61-24-73v-23h230v230l-22-1c-13 0-38-6-56-12zm254-2-39-14-34-33c-41-38-72-100-73-142v-28l38 6c20 4 57 19 82 34l44 28 27 44c15 25 30 62 34 83l6 37h-23c-13-1-40-7-62-15zm109-11c20-90 48-133 108-168 23-14 59-28 80-31l37-7v67l-30 52-30 52-42 25-43 25-43 7-43 7 6-29zM773 1653l-73-4v-23c0-12 12-47 28-77l27-54 41-29 42-28 42-8 42-8 4 12c3 7 3 59 2 117l-3 104-40 1c-22 0-73-1-112-3zm183 0c-3-3-6-55-6-114v-108l8-3c4-2 55-2 115 0l107 4v26c0 14-9 45-21 69l-21 43-31 26c-33 28-72 47-118 57l-26 7-7-7zm1186-12-53-18-31-29c-36-34-67-98-68-138v-29l41 6 40 5 40 27 40 26 30 46 29 47v76h-7c-5-1-32-9-61-19zm-932-101v-110h230v220h-230v-110zm260 0v-110h230v220h-230v-110zm260 0v-110h230l-7 33c-19 99-111 187-198 187h-25v-110zm-774-149c-10-15 21-100 49-138l28-35 51-24c28-13 61-24 74-24h22v230H961l-5-9zm1009-1c-4-6-5-34-4-62l3-52-11-3-11-4-22 31-21 30h-37l-25-30-26-30h-32l6 9 5 9-15 16c-19 18-91 40-110 32l-13-5 5-20 5-21 37-1h36l-20-9c-11-5-37-9-57-9l-38-1v40h-38l-5-20-5-20h-30l-5 19c-2 10-13 24-24 30l-20 10-21-15-22-15v-52l18-13 17-13-22-1h-23v-40h19c10 0 36 12 57 26l39 27 67-1 68-2 26 10 26 10 12-9 11-9h212l12 8 13 7 1 29c0 16 0 50-1 77l-2 47h-14c-8 0-18-5-21-10zm-465-110c0-5-5-10-11-10h-10l6 10c3 6 8 10 11 10 2 0 4-4 4-10zm390 0c0-5-4-10-10-10-5 0-10 5-10 10 0 6 5 10 10 10 6 0 10-4 10-10zm155 110-7-11 7-74 7-75h38v39c0 21-3 59-6 85l-7 46h-13c-7 0-16-5-19-10zm-473-38 3-16 30-1h30v29l-33 2-33 2 3-16zm-231-38c-26-33-26-39 1-58l22-16-11-11-11-11-23 4-24 3-3 27-3 26-16 6c-21 9-25 3-26-38l-1-36 13-13 12-12h97l21 19 21 19v36l-20 11c-26 14-25 28 3 32l22 3v30l-26 3-27 3-21-27zm441-140 3-17 27-3 28-3 6 11 6 10-11 11-12 12-8-14-8-13-7 11c-4 6-12 11-17 11h-10l3-16zm198-63v-60l-10-6-10-6-18 30-18 29-16-9-17-10 11-24 11-24-13-16c-7-8-19-15-26-15h-14v-40h14c8 0 27 10 43 23l28 23 28 2c16 1 33 4 38 8l9 5v149h-40v-59zm64-2c3-34 6-70 6-80v-19h40v43c0 23-3 59-6 80l-7 37h-40l7-61zm-251 20-23-8v-57l12-12 12-12h-42l-26 35c-15 19-33 35-40 35s-27-16-45-35l-31-35h-199l-27 10-27 11-8-13-8-13 9-9c6-6 10-14 10-19v-8l-37 3-38 3-3 28-3 28-17-3-17-3-3-31-3-31 16-17 16-16h99l20 20 20 20h201l20 11 20 10 12-9 12-10 80 4 79 5 14 11 13 11-3 40-3 40-20 12-20 13-22-9zm27-39c0-5-2-10-4-10-3 0-8 5-11 10l-6 10h10c6 0 11-4 11-10zm-123-46c-3-3-11-3-16 1l-11 6 6 11 6 10 11-11c6-6 8-13 4-17zm-412-113c-7-13 4-18 43-19l33-1-4 12-4 12-31 2-31 3-6-9z"/></g><g fill="#f4bb0f" transform="matrix(.1 0 0 -.1 0 300)"><path d="M1217 2164c-4-4-7-56-7-116v-108h230v16c0 35-24 94-52 129l-30 36-36 18c-21 10-51 22-67 25l-31 7-7-7zm336-1c9-2 25-2 35 0l17 5h-70l18-5zm-48-13-6-10 15 6c18 7 21 14 7 14-6 0-13-4-16-10zm140-20c10-11 20-20 23-20s-3 9-13 20-20 20-23 20 3-9 13-20zm-173-19-14-23v-66l14-23 13-24 3 43c2 23 2 59 0 80l-3 37-13-24zm177-128c-8-9-27-22-44-29l-30-13 17-1h18l32 30c18 16 30 30 27 30-4 0-13-7-20-17zm-111-40c7-3 16-2 19 1 4 3-2 6-13 5l-19-1 13-5zm-704-52c-23-10-45-24-49-31l-7-12 26 17 26 17v-162H712l-5 13-5 12-1-32-1-33h230v230h-27c-16 0-47-9-69-19zm123 12c-4-3-7-53-7-110v-104l14-5c22-8 84 12 127 42l38 26 26 51 25 51v56h-108c-60 0-112-3-115-7zm253-108v-115h230v230h-230v-115zm480 20v-95h-180l-1 43-1 42-19-40c-10-22-19-50-19-62v-23h230v115c0 63-2 115-5 115s-5-43-5-95zm261 79 1-19 5 13c3 7 2 16-1 19-3 4-6-2-5-13zm-122-25-24-20 28 17c15 9 27 18 27 20 0 8-8 4-31-17zm-295-31-29-33 33 29c30 28 37 36 29 36-2 0-16-15-33-32zm407 15c-1-6-4-20-7-30l-6-18 12 18c6 10 9 23 6 30l-4 12-1-12zm189 3c0-2 8-10 18-17l17-14-14 18c-13 16-21 21-21 13zm-1391-43-14-18 18 14c9 7 17 15 17 17 0 8-8 3-21-13zm1261 11c0-6 7-19 16-30l15-19-12 25c-14 31-19 36-19 24zm180-67v-39l-50 4c-28 1-50 2-50 1 0-7 61-32 93-38l37-7v33l-1 34-14 25-14 25-1-38zm-296-9-19-23 23 19c21 18 27 26 19 26-2 0-12-10-23-22zm161 2c10-11 20-20 23-20s-3 9-13 20-20 20-23 20 3-9 13-20zm-315-39v-33l37 7c32 6 93 31 93 38 0 1-25 0-56-2l-57-3-8 13-9 14v-34zm-957-58-73-4v-23c0-12 12-47 28-77l27-54 41-29 42-28 42-8 42-8 4 12c3 7 3 59 2 117l-3 104-40 1c-22 0-73-1-112-3zm183 0c-3-3-6-55-6-114v-108l8-3c4-2 55-2 115 0l107 4v26c0 14-9 45-21 69l-21 43-31 26c-33 28-72 47-118 57l-26 7-7-7zm1186-12-53-18-31-29c-36-34-67-98-68-138v-29l41 6 40 5 40 27 40 26 30 46 29 47v76h-7c-5-1-32-9-61-19zm-932-101v-110h230v220h-230v-110zm260 0v-110h230v220h-230v-110zm260 0v-110h230l-7 33c-19 99-111 187-198 187h-25v-110zm-774-149c-10-15 21-100 49-138l28-35 51-24c28-13 61-24 74-24h22v230H961l-5-9zm1008-5c-3-7-4-33-1-57l4-44 1 52 2 52 18 4 17 5-18 1-18 1-5-14zm80 0c-3-8-4-29-1-48l4-33 1 42 2 42 18 4 17 5-18 1-18 1-5-14zm-464-26 13-8-6-9-6-9 27 1h27v29l-34 2-34 2 13-8zm50-10c0-5-4-10-10-10-5 0-10 5-10 10 0 6 5 10 10 10 6 0 10-4 10-10zm-230-17c17-8 11-23-9-23-11 0-23-5-27-11l-6-11 11-11 12-12-6 17-7 16 24 4 23 3v14c0 8-6 15-13 17l-12 3 10-6zm256-2-5-8 24 5c14 2 25 6 25 8 0 8-39 4-44-5zm424-40v-50l-17-4-18-5 23-1 22-1v55c0 30-2 55-5 55s-5-22-5-49zm-190 35c0-2 8-10 18-17l17-14-14 18c-13 16-21 21-21 13zm-369-23c7-12 15-20 18-17 3 2-3 12-13 22l-18 17 13-22zm85-8c4-8 8-15 10-15s4 7 4 15-4 15-10 15h-9l5-15zm396-5v-25l5 13c2 6 2 18 0 25l-5 12v-25zm-342 6c0-2 18-6 39-8l39-3-4 7c-5 8-74 11-74 4zm205-6c-3-5-3-14 0-20 8-13 35-13 35 0v9l-17-6-16-6 6 16c7 19 2 23-8 7zm-615-11v-10l10 6c6 3 10 8 10 11 0 2-4 4-10 4-5 0-10-5-10-11zm70 4c0-6 8-17 18-24l17-14-15 20c-8 11-16 22-17 24-2 2-3 0-3-6zm455-3-6-10 16-6c9-4 19-4 22 0 4 3-1 6-11 6h-17l6 10c3 6 4 10 1 10s-8-5-11-10zm157-5 18-19 12 13 13 14-13-7-13-8-17 13-17 13 17-19zm-652-19c0-14 4-27 8-30l8-5-4 30c-5 35-12 38-12 5zm210 14-15-10h35v10c0 12-1 12-20 0zm65 0-20-9h17c9-1 20 4 23 9 7 11 7 11-20 0zm88-7c9-2 23-2 30 0l12 5h-60l18-5zm77-14-15-10 22 6 21 6 7-11c3-5 14-10 23-10h17l-29 15c-33 18-28 17-46 4zm-364-16-7-18 12 12c7 7 10 15 7 18s-9-2-12-12zm219 7-20-8 37 1 38 1-13 8c-14 9-16 9-42-2zm245 0-15-10h10c6 0 17 5 25 10l15 10h-10c-5 0-17-5-25-10zm-345-10c3-5 8-10 11-10 2 0 4 5 4 10 0 6-5 10-11 10h-10l6-10zm203 3c7-3 16-2 19 1 4 3-2 6-13 5l-19-1 13-5zm-294-25-19-23 23 19c21 18 27 26 19 26-2 0-12-10-23-22zm135 5-14-18 18 14c16 13 21 21 13 21-2 0-10-8-17-17zm-79-13v-20l23 1 22 1-17 5c-21 5-23 19-5 26l12 5-17 1-18 1v-20zm-137-17c9-2 25-2 35 0l17 5h-70l18-5zm486-2 14-9-6-9-6-9 27 1h27v28l-15 4-15 5 15-11 14-10-7-7-7-7-18 16c-10 10-23 17-28 17s-3-4 5-9zm224-46v-40l4 23c2 12 2 30 0 40l-5 17 1-40zm30-5v-45l4 23c2 12 2 32 0 45l-4 22v-45zm-268-11c-4-6-5-12-2-15 2-3 7 2 10 11 7 17 1 20-8 4zm66-6c7-12 15-20 18-17 3 2-3 12-13 22l-18 17 13-22zm242-48v-60l4 33c2 18 2 45 0 60l-4 27v-60zm-417 36-6-9 20 5c23 6 26 13 6 13-8 0-17-4-20-9zm313-29-6-33 10 10 9 9-4 23-4 24-5-33zm-197-18c9-9 21-15 27-13l10 4-27 13-27 12 17-16zm56-26c-10-10-14-18-9-18 10 0 36 29 30 34-2 1-12-6-21-16zm-487-5c7-12 15-20 18-17 3 2-3 12-13 22l-18 17 13-22zm655 0-7-18 12 12c7 7 10 15 7 18s-9-2-12-12zm-339-15c6-10 35-10 51 0l13 9-35-1-34-1 5-7zm-214-5c31-2 83-2 115 0l57 3h-230l58-3zm-140-10c9-2 23-2 30 0l12 5h-60l18-5zm-28-62-5-10 8-5 9-5v14c0 17-3 19-12 6zm25-9v-14l16 13 16 13 10-15 10-14-5 15-4 15-21 1-22 1v-15z"/></g><g fill="#a7b6c0" transform="matrix(.1 0 0 -.1 0 300)"><path d="M1217 2164c-4-4-7-56-7-116v-108h230v16c0 35-24 94-52 129l-30 36-36 18c-21 10-51 22-67 25l-31 7-7-7zm336-1c9-2 25-2 35 0l17 5h-70l18-5zm-48-13-6-10 15 6c18 7 21 14 7 14-6 0-13-4-16-10zm140-20c10-11 20-20 23-20s-3 9-13 20-20 20-23 20 3-9 13-20zm-173-19-14-23v-66l14-23 13-24 3 43c2 23 2 59 0 80l-3 37-13-24zm177-128c-8-9-27-22-44-29l-30-13 17-1h18l32 30c18 16 30 30 27 30-4 0-13-7-20-17zm-111-40c7-3 16-2 19 1 4 3-2 6-13 5l-19-1 13-5zm-645-40 28-4-3-110-3-109h15v230l-32-1-33-2 28-4zm64 0c-4-3-7-53-7-110v-104l14-5c22-8 84 12 127 42l38 26 26 51 25 51v56h-108c-60 0-112-3-115-7zm33-108v-105h-30v210h30v-105zm220 0v-115h230v230h-230v-115zm480 20v-95h-180l-1 43-1 42-19-40c-10-22-19-50-19-62v-23h230v115c0 63-2 115-5 115s-5-43-5-95zm261 79 1-19 5 13c3 7 2 16-1 19-3 4-6-2-5-13zm-1138-14c-46-27-41-34 5-8 46 27 48 28 36 28-5 0-24-9-41-20zm1016-11-24-20 28 17c15 9 27 18 27 20 0 8-8 4-31-17zm-996-59v-65l4 33c2 17 2 47 0 65l-4 32v-65zm701 28-29-33 33 29c30 28 37 36 29 36-2 0-16-15-33-32zm407 15c-1-6-4-20-7-30l-6-18 12 18c6 10 9 23 6 30l-4 12-1-12zm189 3c0-2 8-10 18-17l17-14-14 18c-13 16-21 21-21 13zm-1391-43-14-18 18 14c9 7 17 15 17 17 0 8-8 3-21-13zm1261 11c0-6 7-19 16-30l15-19-12 25c-14 31-19 36-19 24zm180-55v-20l10 6 9 6-6 14c-7 21-13 19-13-6zm-296-21-19-23 23 19c21 18 27 26 19 26-2 0-12-10-23-22zm161 2c10-11 20-20 23-20s-3 9-13 20-20 20-23 20 3-9 13-20zm156-16 1-19 5 13c3 7 2 16-1 19-3 4-6-2-5-13zm-1500-21-1-33h83l82 1-18 10-17 10 5 10 6 9H712l-5 13-5 12-1-32zm1029-2v-33l37 7c32 6 93 31 93 38 0 1-25 0-56-2l-57-3-8 13-9 14v-34zm350 12c0-8 62-32 95-37 22-3 34-3 28 0-7 3-13 13-13 22v17h-55c-30 0-55-1-55-2zm-1307-70-73-4v-23c0-12 12-47 28-77l27-54 49-32c26-18 56-33 65-32h16l-22 9-23 9v201h81l-3-115-3-114 8 8 8 8-3 109-3 109-40 1c-22 0-73-1-112-3zm184 0c-4-3-7-55-7-114v-108l8-3c4-2 56-2 116 0l108 4-5 40-5 39-26 40-26 39-38 24c-20 14-49 28-64 31l-28 7v-222h-30v218l13 5 12 5-11 1c-6 1-14-2-17-6zm1185-12-53-18-31-29c-36-34-67-98-68-138v-29l41 6 40 5 40 27 40 26 30 46c16 26 29 54 28 62v16l-9-20-9-20v37l-1 36 13 5 12 5-10 1c-5 0-34-8-63-18zm-932-101v-110h230v220h-230v-110zm260 0v-110h230v220h-230v-110zm260 0v-110h230l-7 33c-19 99-111 187-198 187h-25v-110zm-775-151c-4-6-4-13-1-16 3-4 6-1 6 5v12h31l-2-55-3-55 23-31 23-31 51-24c29-13 62-24 75-24h22v230H961l-6-11zm1009-3c-3-7-4-33-1-57l4-44 1 52 2 52 18 4 17 5-18 1-18 1-5-14zm80 0c-3-8-4-29-1-48l4-33 1 42 2 42 18 4 17 5-18 1-18 1-5-14zm-464-26 13-8-6-9-6-9 27 1h27v29l-34 2-34 2 13-8zm50-10c0-5-4-10-10-10-5 0-10 5-10 10 0 6 5 10 10 10 6 0 10-4 10-10zm-230-17c17-8 11-23-9-23-11 0-23-5-27-11l-6-11 11-11 12-12-6 17-7 16 24 4 23 3v14c0 8-6 15-13 17l-12 3 10-6zm256-2-5-8 24 5c14 2 25 6 25 8 0 8-39 4-44-5zm424-40v-50l-17-4-18-5 23-1 22-1v55c0 30-2 55-5 55s-5-22-5-49zm-190 35c0-2 8-10 18-17l17-14-14 18c-13 16-21 21-21 13zm-369-23c7-12 15-20 18-17 3 2-3 12-13 22l-18 17 13-22zm85-8c4-8 8-15 10-15s4 7 4 15-4 15-10 15h-9l5-15zm396-5v-25l5 13c2 6 2 18 0 25l-5 12v-25zm-342 6c0-2 18-6 39-8l39-3-4 7c-5 8-74 11-74 4zm205-6c-3-5-3-14 0-20 8-13 35-13 35 0v9l-17-6-16-6 6 16c7 19 2 23-8 7zm-615-11v-10l10 6c6 3 10 8 10 11 0 2-4 4-10 4-5 0-10-5-10-11zm70 4c0-6 8-17 18-24l17-14-15 20c-8 11-16 22-17 24-2 2-3 0-3-6zm455-3-6-10 16-6c9-4 19-4 22 0 4 3-1 6-11 6h-17l6 10c3 6 4 10 1 10s-8-5-11-10zm157-5 18-19 12 13 13 14-13-7-13-8-17 13-17 13 17-19zm-652-19c0-14 4-27 8-30l8-5-4 30c-5 35-12 38-12 5zm210 14-15-10h35v10c0 12-1 12-20 0zm65 0-20-9h17c9-1 20 4 23 9 7 11 7 11-20 0zm88-7c9-2 23-2 30 0l12 5h-60l18-5zm77-14-15-10 22 6 21 6 7-11c3-5 14-10 23-10h17l-29 15c-33 18-28 17-46 4zm-364-16-7-18 12 12c7 7 10 15 7 18s-9-2-12-12zm219 7-20-8 37 1 38 1-13 8c-14 9-16 9-42-2zm245 0-15-10h10c6 0 17 5 25 10l15 10h-10c-5 0-17-5-25-10zm-345-10c3-5 8-10 11-10 2 0 4 5 4 10 0 6-5 10-11 10h-10l6-10zm203 3c7-3 16-2 19 1 4 3-2 6-13 5l-19-1 13-5zm-294-25-19-23 23 19c21 18 27 26 19 26-2 0-12-10-23-22zm135 5-14-18 18 14c16 13 21 21 13 21-2 0-10-8-17-17zm-79-13v-20l23 1 22 1-17 5c-21 5-23 19-5 26l12 5-17 1-18 1v-20zm-137-17c9-2 25-2 35 0l17 5h-70l18-5zm486-2 14-9-6-9-6-9 27 1h27v28l-15 4-15 5 15-11 14-10-7-7-7-7-18 16c-10 10-23 17-28 17s-3-4 5-9zm224-46v-40l4 23c2 12 2 30 0 40l-5 17 1-40zm30-5v-45l4 23c2 12 2 32 0 45l-4 22v-45zm-268-11c-4-6-5-12-2-15 2-3 7 2 10 11 7 17 1 20-8 4zm66-6c7-12 15-20 18-17 3 2-3 12-13 22l-18 17 13-22zm242-48v-60l4 33c2 18 2 45 0 60l-4 27v-60zm-417 36-6-9 20 5c23 6 26 13 6 13-8 0-17-4-20-9zm313-29-6-33 10 10 9 9-4 23-4 24-5-33zm-197-18c9-9 21-15 27-13l10 4-27 13-27 12 17-16zm56-26c-10-10-14-18-9-18 10 0 36 29 30 34-2 1-12-6-21-16zm-487-5c7-12 15-20 18-17 3 2-3 12-13 22l-18 17 13-22zm655 0-7-18 12 12c7 7 10 15 7 18s-9-2-12-12zm-339-15c6-10 35-10 51 0l13 9-35-1-34-1 5-7zm-214-5c31-2 83-2 115 0l57 3h-230l58-3zm-140-10c9-2 23-2 30 0l12 5h-60l18-5zm-28-62-5-10 8-5 9-5v14c0 17-3 19-12 6zm25-9v-14l16 13 16 13 10-15 10-14-5 15-4 15-21 1-22 1v-15z"/></g><g fill="#2fc2b8" transform="matrix(.1 0 0 -.1 0 300)"><path d="M1217 2164c-4-4-7-56-7-116v-108h230v16c0 35-24 94-52 129l-30 36-36 18c-21 10-51 22-67 25l-31 7-7-7zm255-53-14-23v-66l14-23 13-24 3 43c2 23 2 59 0 80l-3 37-13-24zm-579-208 28-4-3-110-3-109h15v230l-32-1-33-2 28-4zm64 0c-4-3-7-53-7-110v-104l14-5c22-8 84 12 127 42l38 26 26 51 25 51v56h-108c-60 0-112-3-115-7zm33-108v-105h-30v210h30v-105zm220 0v-115h230v230h-230v-115zm-375 95-6-10 15 6c18 7 21 14 7 14-6 0-13-4-16-10zm-2-80v-65l4 33c2 17 2 47 0 65l-4 32v-65zm655-48c-10-23-18-51-18-62v-20h230v30h-189l-3 48-3 47-17-43zm713-28 1-19 5 13c3 7 2 16-1 19-3 4-6-2-5-13zm-21-14v-10h-37l-38-1 15-8c8-5 33-12 55-15s32-3 22 0l-18 6 6 19c4 10 4 19 1 19s-6-4-6-10zm-1412-7-68-4v-29h83l82 1-18 10-17 10 5 10c4 5 5 8 3 7s-33-3-70-5zm962-19v-16l38 7c20 4 44 11 52 16l15 8-52 1h-53v-16zm-957-41-73-4v-23c0-12 12-47 28-77l27-54 49-32c26-18 56-33 65-32h16l-22 9-23 9v201h81l-3-115-3-114 8 8 8 8-3 109-3 109-40 1c-22 0-73-1-112-3zm184 0c-4-3-7-55-7-114v-108l8-3c4-2 56-2 116 0l108 4-5 40-5 39-26 40-26 39-38 24c-20 14-49 28-64 31l-28 7v-222h-30v218l13 5 12 5-11 1c-6 1-14-2-17-6zm253-113v-110h230v220h-230v-110zm260 0v-110h230v220h-230v-110zm260 0v-110h230l-7 33c-19 99-111 187-198 187h-25v-110zm385 91c-69-32-125-111-125-177v-27l41 6 40 5 40 27 40 26 30 46c16 26 29 54 29 62l-1 16-15-30-14-30 5 28c7 35-2 67-18 67-7 0-30-9-52-19zM955 1389c-4-6-4-13-1-16 3-4 6-1 6 5v12h31l-2-55-3-55 23-31 23-31 51-24c29-13 62-24 75-24h22v230H961l-6-11z"/></g><g fill="#da794b" transform="matrix(.1 0 0 -.1 0 300)"><path d="M1217 2164c-4-4-7-56-7-116v-108h230v16c0 35-24 94-52 129l-30 36-36 18c-21 10-51 22-67 25l-31 7-7-7zm255-53-14-23v-66l14-23 13-24 3 43c2 23 2 59 0 80l-3 37-13-24zm-579-208 28-4-3-110-3-109h15v230l-32-1-33-2 28-4zm64 0c-4-3-7-53-7-110v-104l14-5c22-8 84 12 127 42l38 26 26 51 25 51v56h-108c-60 0-112-3-115-7zm33-108v-105h-30v210h30v-105zm220 0v-115h230v230h-230v-115zm-375 95-6-10 15 6c18 7 21 14 7 14-6 0-13-4-16-10zm-2-80v-65l4 33c2 17 2 47 0 65l-4 32v-65zm653-50c-9-22-16-49-16-60v-20h40v60c0 33-2 60-4 60s-11-18-20-40zm715-26 1-19 5 13c3 7 2 16-1 19-3 4-6-2-5-13zm-1371-44c0-6 7-10 15-10s15 2 15 4-7 6-15 10l-15 5v-9zm1358-7c7-3 16-2 19 1 4 3-2 6-13 5l-19-1 13-5zm-1351-29-7-7v-205l16-6c9-3 21-6 27-5 7 0 2 4-10 9l-23 9v201h81l-3-115-3-114 8 8 8 8-3 109-3 109-40 3c-23 2-44 0-48-4zm120-1c-4-3-7-55-7-114v-108l8-3c4-2 56-2 116 0l108 4-5 40-5 39-26 40-26 39-38 24c-20 14-49 28-64 31l-28 7v-222h-30v218l13 5 12 5-11 1c-6 1-14-2-17-6zm253-113v-110h230v220h-230v-110zm260 0v-110h40v220h-40v-110zm712 70v-25l5 13c2 6 2 18 0 25l-5 12v-25zm19-7c-1-6-4-20-7-30l-6-18 12 18c6 10 9 23 6 30l-4 12-1-12zM955 1389c-4-6-4-13-1-16 3-4 6-1 6 5v12h31l-2-55-3-55 23-31 23-31 51-24c29-13 62-24 75-24h22v230H961l-6-11z"/></g><g fill="#4268dc" transform="matrix(.1 0 0 -.1 0 300)"><path d="M1217 2164c-4-4-7-56-7-116v-108h230v16c0 35-24 94-52 129l-30 36-36 18c-21 10-51 22-67 25l-31 7-7-7zm255-53-14-23v-66l14-23 13-24 3 43c2 23 2 59 0 80l-3 37-13-24zm-321-258 1-58 13 30c8 17 14 42 15 58v27h-30l1-57zm59-58v-115h230v230h-230v-115zm276-35c-9-22-16-49-16-60v-20h40v60c0 33-2 60-4 60s-11-18-20-40zm-276-220v-110h230v220h-230v-110zm260 0v-110h40v220h-40v-110zm-319-52-1-58h30v28c-1 15-7 41-15 57l-13 30-1-57zm-1-203v-115h30v230h-30v-115z"/></g></g></svg>